{
	"asset":{
		"generator":"Khronos glTF Blender I/O v5.0.21",
		"version":"2.0"
	},
	"scene":0,
	"scenes":[
		{
			"name":"Scene",
			"nodes":[
				0
			]
		}
	],
	"nodes":[
		{
			"mesh":0,
			"name":"Instagram"
		}
	],
	"materials":[
		{
			"doubleSided":true,
			"name":"SVGMat.001",
			"pbrMetallicRoughness":{
				"baseColorTexture":{
					"index":0
				},
				"metallicFactor":0,
				"roughnessFactor":0.4000000059604645
			}
		}
	],
	"meshes":[
		{
			"name":"Curve.001",
			"primitives":[
				{
					"attributes":{
						"POSITION":0,
						"NORMAL":1,
						"TEXCOORD_0":2
					},
					"indices":3,
					"material":0
				}
			]
		}
	],
	"textures":[
		{
			"sampler":0,
			"source":0
		}
	],
	"images":[
		{
			"mimeType":"image/png",
			"name":"Instagram",
			"uri":"Instagram.png"
		}
	],
	"accessors":[
		{
			"bufferView":0,
			"componentType":5126,
			"count":10238,
			"max":[
				6.780300617218018,
				0,
				6.775647163391113
			],
			"min":[
				-6.775661945343018,
				-0.4597668945789337,
				-6.770862102508545
			],
			"type":"VEC3"
		},
		{
			"bufferView":1,
			"componentType":5126,
			"count":10238,
			"type":"VEC3"
		},
		{
			"bufferView":2,
			"componentType":5126,
			"count":10238,
			"type":"VEC2"
		},
		{
			"bufferView":3,
			"componentType":5123,
			"count":22920,
			"type":"SCALAR"
		}
	],
	"bufferViews":[
		{
			"buffer":0,
			"byteLength":122856,
			"byteOffset":0,
			"target":34962
		},
		{
			"buffer":0,
			"byteLength":122856,
			"byteOffset":122856,
			"target":34962
		},
		{
			"buffer":0,
			"byteLength":81904,
			"byteOffset":245712,
			"target":34962
		},
		{
			"buffer":0,
			"byteLength":45840,
			"byteOffset":327616,
			"target":34963
		}
	],
	"samplers":[
		{
			"magFilter":9729,
			"minFilter":9987
		}
	],
	"buffers":[
		{
			"byteLength":373456,
			"uri":"instagram.bin"
		}
	]
}
