{
	"asset":{
		"generator":"Khronos glTF Blender I/O v5.0.21",
		"version":"2.0"
	},
	"extensionsUsed":[
		"KHR_materials_specular"
	],
	"scene":0,
	"scenes":[
		{
			"name":"Scene",
			"nodes":[
				0,
				1,
				2
			]
		}
	],
	"nodes":[
		{
			"mesh":0,
			"name":"s4studio_mesh_0"
		},
		{
			"mesh":1,
			"name":"s4studio_mesh_1"
		},
		{
			"mesh":2,
			"name":"s4studio_mesh_2"
		}
	],
	"materials":[
		{
			"alphaMode":"BLEND",
			"doubleSided":true,
			"extensions":{
				"KHR_materials_specular":{
					"specularFactor":0
				}
			},
			"name":"DIFFUSE",
			"pbrMetallicRoughness":{
				"baseColorTexture":{
					"index":0
				},
				"metallicFactor":0,
				"roughnessFactor":0.5
			}
		},
		{
			"alphaMode":"BLEND",
			"doubleSided":true,
			"extensions":{
				"KHR_materials_specular":{
					"specularFactor":0
				}
			},
			"name":"DIFFUSE.001",
			"pbrMetallicRoughness":{
				"baseColorTexture":{
					"index":1
				},
				"metallicFactor":0,
				"roughnessFactor":0.5
			}
		}
	],
	"meshes":[
		{
			"name":"s4studio_mesh_0",
			"primitives":[
				{
					"attributes":{
						"POSITION":0,
						"NORMAL":1,
						"TEXCOORD_0":2,
						"TEXCOORD_1":3
					},
					"indices":4,
					"material":0
				}
			]
		},
		{
			"name":"s4studio_mesh_1",
			"primitives":[
				{
					"attributes":{
						"POSITION":5,
						"NORMAL":6,
						"TEXCOORD_0":7
					},
					"indices":8,
					"material":1
				}
			]
		},
		{
			"name":"s4studio_mesh_2",
			"primitives":[
				{
					"attributes":{
						"POSITION":9,
						"NORMAL":10,
						"TEXCOORD_0":11
					},
					"indices":12
				}
			]
		}
	],
	"textures":[
		{
			"sampler":0,
			"source":0
		},
		{
			"sampler":0,
			"source":1
		}
	],
	"images":[
		{
			"mimeType":"image/png",
			"name":"0",
			"uri":"0.png"
		},
		{
			"mimeType":"image/png",
			"name":"1",
			"uri":"1.png"
		}
	],
	"accessors":[
		{
			"bufferView":0,
			"componentType":5126,
			"count":270,
			"max":[
				0.21875667572021484,
				0.4499954283237457,
				0.39307841658592224
			],
			"min":[
				-0.21875667572021484,
				-1.7182003375637578e-08,
				-0.1117587611079216
			],
			"type":"VEC3"
		},
		{
			"bufferView":1,
			"componentType":5126,
			"count":270,
			"type":"VEC3"
		},
		{
			"bufferView":2,
			"componentType":5126,
			"count":270,
			"type":"VEC2"
		},
		{
			"bufferView":3,
			"componentType":5126,
			"count":270,
			"type":"VEC2"
		},
		{
			"bufferView":4,
			"componentType":5123,
			"count":486,
			"type":"SCALAR"
		},
		{
			"bufferView":5,
			"componentType":5126,
			"count":24,
			"max":[
				0.1982787549495697,
				0.1273842602968216,
				0.20938749611377716
			],
			"min":[
				-0.12527848780155182,
				0.041138943284749985,
				0.0792870968580246
			],
			"type":"VEC3"
		},
		{
			"bufferView":6,
			"componentType":5126,
			"count":24,
			"type":"VEC3"
		},
		{
			"bufferView":7,
			"componentType":5126,
			"count":24,
			"type":"VEC2"
		},
		{
			"bufferView":8,
			"componentType":5123,
			"count":36,
			"type":"SCALAR"
		},
		{
			"bufferView":9,
			"componentType":5126,
			"count":4,
			"max":[
				0.1266212910413742,
				0.4062623977661133,
				0.07629629224538803
			],
			"min":[
				-0.0633259043097496,
				0.25000762939453125,
				0.06820887327194214
			],
			"type":"VEC3"
		},
		{
			"bufferView":10,
			"componentType":5126,
			"count":4,
			"type":"VEC3"
		},
		{
			"bufferView":11,
			"componentType":5126,
			"count":4,
			"type":"VEC2"
		},
		{
			"bufferView":12,
			"componentType":5123,
			"count":6,
			"type":"SCALAR"
		}
	],
	"bufferViews":[
		{
			"buffer":0,
			"byteLength":3240,
			"byteOffset":0,
			"target":34962
		},
		{
			"buffer":0,
			"byteLength":3240,
			"byteOffset":3240,
			"target":34962
		},
		{
			"buffer":0,
			"byteLength":2160,
			"byteOffset":6480,
			"target":34962
		},
		{
			"buffer":0,
			"byteLength":2160,
			"byteOffset":8640,
			"target":34962
		},
		{
			"buffer":0,
			"byteLength":972,
			"byteOffset":10800,
			"target":34963
		},
		{
			"buffer":0,
			"byteLength":288,
			"byteOffset":11772,
			"target":34962
		},
		{
			"buffer":0,
			"byteLength":288,
			"byteOffset":12060,
			"target":34962
		},
		{
			"buffer":0,
			"byteLength":192,
			"byteOffset":12348,
			"target":34962
		},
		{
			"buffer":0,
			"byteLength":72,
			"byteOffset":12540,
			"target":34963
		},
		{
			"buffer":0,
			"byteLength":48,
			"byteOffset":12612,
			"target":34962
		},
		{
			"buffer":0,
			"byteLength":48,
			"byteOffset":12660,
			"target":34962
		},
		{
			"buffer":0,
			"byteLength":32,
			"byteOffset":12708,
			"target":34962
		},
		{
			"buffer":0,
			"byteLength":12,
			"byteOffset":12740,
			"target":34963
		}
	],
	"samplers":[
		{
			"magFilter":9729,
			"minFilter":9987
		}
	],
	"buffers":[
		{
			"byteLength":12752,
			"uri":"computer.bin"
		}
	]
}
